<mxfile host="app.diagrams.net" modified="2024-05-23T15:34:18.012Z" agent="Mozilla/5.0 (Windows NT 10.0; Win64; x64) AppleWebKit/537.36 (KHTML, like Gecko) Chrome/125.0.0.0 Safari/537.36 Edg/125.0.0.0" etag="aVwEGel5a-Bk7tRku5yC" version="24.4.6" type="device">
  <diagram name="Page-1" id="HPgcJkz5oytvzx6SmZDi">
    <mxGraphModel dx="815" dy="462" grid="1" gridSize="10" guides="1" tooltips="1" connect="1" arrows="1" fold="1" page="1" pageScale="1" pageWidth="827" pageHeight="1169" math="0" shadow="0">
      <root>
        <mxCell id="0" />
        <mxCell id="1" parent="0" />
        <mxCell id="8wE4H0vgRaOmy2ro6tZ8-98" style="edgeStyle=orthogonalEdgeStyle;rounded=0;orthogonalLoop=1;jettySize=auto;html=1;entryX=0;entryY=0.5;entryDx=0;entryDy=0;" parent="1" source="8wE4H0vgRaOmy2ro6tZ8-10" target="8wE4H0vgRaOmy2ro6tZ8-47" edge="1">
          <mxGeometry relative="1" as="geometry" />
        </mxCell>
        <mxCell id="8wE4H0vgRaOmy2ro6tZ8-10" value="TIME" style="shape=table;startSize=30;container=1;collapsible=1;childLayout=tableLayout;fixedRows=1;rowLines=0;fontStyle=1;align=center;resizeLast=1;html=1;" parent="1" vertex="1">
          <mxGeometry x="31.5" y="565" width="180" height="150" as="geometry" />
        </mxCell>
        <mxCell id="8wE4H0vgRaOmy2ro6tZ8-11" value="" style="shape=tableRow;horizontal=0;startSize=0;swimlaneHead=0;swimlaneBody=0;fillColor=none;collapsible=0;dropTarget=0;points=[[0,0.5],[1,0.5]];portConstraint=eastwest;top=0;left=0;right=0;bottom=1;" parent="8wE4H0vgRaOmy2ro6tZ8-10" vertex="1">
          <mxGeometry y="30" width="180" height="30" as="geometry" />
        </mxCell>
        <mxCell id="8wE4H0vgRaOmy2ro6tZ8-12" value="PK" style="shape=partialRectangle;connectable=0;fillColor=none;top=0;left=0;bottom=0;right=0;fontStyle=1;overflow=hidden;whiteSpace=wrap;html=1;" parent="8wE4H0vgRaOmy2ro6tZ8-11" vertex="1">
          <mxGeometry width="30" height="30" as="geometry">
            <mxRectangle width="30" height="30" as="alternateBounds" />
          </mxGeometry>
        </mxCell>
        <mxCell id="8wE4H0vgRaOmy2ro6tZ8-13" value="ID" style="shape=partialRectangle;connectable=0;fillColor=none;top=0;left=0;bottom=0;right=0;align=left;spacingLeft=6;fontStyle=5;overflow=hidden;whiteSpace=wrap;html=1;" parent="8wE4H0vgRaOmy2ro6tZ8-11" vertex="1">
          <mxGeometry x="30" width="150" height="30" as="geometry">
            <mxRectangle width="150" height="30" as="alternateBounds" />
          </mxGeometry>
        </mxCell>
        <mxCell id="8wE4H0vgRaOmy2ro6tZ8-14" value="" style="shape=tableRow;horizontal=0;startSize=0;swimlaneHead=0;swimlaneBody=0;fillColor=none;collapsible=0;dropTarget=0;points=[[0,0.5],[1,0.5]];portConstraint=eastwest;top=0;left=0;right=0;bottom=0;" parent="8wE4H0vgRaOmy2ro6tZ8-10" vertex="1">
          <mxGeometry y="60" width="180" height="30" as="geometry" />
        </mxCell>
        <mxCell id="8wE4H0vgRaOmy2ro6tZ8-15" value="" style="shape=partialRectangle;connectable=0;fillColor=none;top=0;left=0;bottom=0;right=0;editable=1;overflow=hidden;whiteSpace=wrap;html=1;" parent="8wE4H0vgRaOmy2ro6tZ8-14" vertex="1">
          <mxGeometry width="30" height="30" as="geometry">
            <mxRectangle width="30" height="30" as="alternateBounds" />
          </mxGeometry>
        </mxCell>
        <mxCell id="8wE4H0vgRaOmy2ro6tZ8-16" value="nome" style="shape=partialRectangle;connectable=0;fillColor=none;top=0;left=0;bottom=0;right=0;align=left;spacingLeft=6;overflow=hidden;whiteSpace=wrap;html=1;" parent="8wE4H0vgRaOmy2ro6tZ8-14" vertex="1">
          <mxGeometry x="30" width="150" height="30" as="geometry">
            <mxRectangle width="150" height="30" as="alternateBounds" />
          </mxGeometry>
        </mxCell>
        <mxCell id="8wE4H0vgRaOmy2ro6tZ8-17" value="" style="shape=tableRow;horizontal=0;startSize=0;swimlaneHead=0;swimlaneBody=0;fillColor=none;collapsible=0;dropTarget=0;points=[[0,0.5],[1,0.5]];portConstraint=eastwest;top=0;left=0;right=0;bottom=0;" parent="8wE4H0vgRaOmy2ro6tZ8-10" vertex="1">
          <mxGeometry y="90" width="180" height="30" as="geometry" />
        </mxCell>
        <mxCell id="8wE4H0vgRaOmy2ro6tZ8-18" value="" style="shape=partialRectangle;connectable=0;fillColor=none;top=0;left=0;bottom=0;right=0;editable=1;overflow=hidden;whiteSpace=wrap;html=1;" parent="8wE4H0vgRaOmy2ro6tZ8-17" vertex="1">
          <mxGeometry width="30" height="30" as="geometry">
            <mxRectangle width="30" height="30" as="alternateBounds" />
          </mxGeometry>
        </mxCell>
        <mxCell id="8wE4H0vgRaOmy2ro6tZ8-19" value="apelido" style="shape=partialRectangle;connectable=0;fillColor=none;top=0;left=0;bottom=0;right=0;align=left;spacingLeft=6;overflow=hidden;whiteSpace=wrap;html=1;" parent="8wE4H0vgRaOmy2ro6tZ8-17" vertex="1">
          <mxGeometry x="30" width="150" height="30" as="geometry">
            <mxRectangle width="150" height="30" as="alternateBounds" />
          </mxGeometry>
        </mxCell>
        <mxCell id="8wE4H0vgRaOmy2ro6tZ8-20" value="" style="shape=tableRow;horizontal=0;startSize=0;swimlaneHead=0;swimlaneBody=0;fillColor=none;collapsible=0;dropTarget=0;points=[[0,0.5],[1,0.5]];portConstraint=eastwest;top=0;left=0;right=0;bottom=0;" parent="8wE4H0vgRaOmy2ro6tZ8-10" vertex="1">
          <mxGeometry y="120" width="180" height="30" as="geometry" />
        </mxCell>
        <mxCell id="8wE4H0vgRaOmy2ro6tZ8-21" value="" style="shape=partialRectangle;connectable=0;fillColor=none;top=0;left=0;bottom=0;right=0;editable=1;overflow=hidden;whiteSpace=wrap;html=1;" parent="8wE4H0vgRaOmy2ro6tZ8-20" vertex="1">
          <mxGeometry width="30" height="30" as="geometry">
            <mxRectangle width="30" height="30" as="alternateBounds" />
          </mxGeometry>
        </mxCell>
        <mxCell id="8wE4H0vgRaOmy2ro6tZ8-22" value="data_criacao" style="shape=partialRectangle;connectable=0;fillColor=none;top=0;left=0;bottom=0;right=0;align=left;spacingLeft=6;overflow=hidden;whiteSpace=wrap;html=1;" parent="8wE4H0vgRaOmy2ro6tZ8-20" vertex="1">
          <mxGeometry x="30" width="150" height="30" as="geometry">
            <mxRectangle width="150" height="30" as="alternateBounds" />
          </mxGeometry>
        </mxCell>
        <mxCell id="8wE4H0vgRaOmy2ro6tZ8-23" value="CLASSIFICACAO" style="shape=table;startSize=30;container=1;collapsible=1;childLayout=tableLayout;fixedRows=1;rowLines=0;fontStyle=1;align=center;resizeLast=1;html=1;" parent="1" vertex="1">
          <mxGeometry x="616.5" y="535" width="180" height="180" as="geometry" />
        </mxCell>
        <mxCell id="8wE4H0vgRaOmy2ro6tZ8-24" value="" style="shape=tableRow;horizontal=0;startSize=0;swimlaneHead=0;swimlaneBody=0;fillColor=none;collapsible=0;dropTarget=0;points=[[0,0.5],[1,0.5]];portConstraint=eastwest;top=0;left=0;right=0;bottom=1;" parent="8wE4H0vgRaOmy2ro6tZ8-23" vertex="1">
          <mxGeometry y="30" width="180" height="30" as="geometry" />
        </mxCell>
        <mxCell id="8wE4H0vgRaOmy2ro6tZ8-25" value="PK/FK" style="shape=partialRectangle;connectable=0;fillColor=none;top=0;left=0;bottom=0;right=0;fontStyle=1;overflow=hidden;whiteSpace=wrap;html=1;" parent="8wE4H0vgRaOmy2ro6tZ8-24" vertex="1">
          <mxGeometry width="50.00000000000023" height="30" as="geometry">
            <mxRectangle width="50.00000000000023" height="30" as="alternateBounds" />
          </mxGeometry>
        </mxCell>
        <mxCell id="8wE4H0vgRaOmy2ro6tZ8-26" value="ID_time" style="shape=partialRectangle;connectable=0;fillColor=none;top=0;left=0;bottom=0;right=0;align=left;spacingLeft=6;fontStyle=5;overflow=hidden;whiteSpace=wrap;html=1;" parent="8wE4H0vgRaOmy2ro6tZ8-24" vertex="1">
          <mxGeometry x="50.00000000000023" width="129.99999999999977" height="30" as="geometry">
            <mxRectangle width="129.99999999999977" height="30" as="alternateBounds" />
          </mxGeometry>
        </mxCell>
        <mxCell id="8wE4H0vgRaOmy2ro6tZ8-27" value="" style="shape=tableRow;horizontal=0;startSize=0;swimlaneHead=0;swimlaneBody=0;fillColor=none;collapsible=0;dropTarget=0;points=[[0,0.5],[1,0.5]];portConstraint=eastwest;top=0;left=0;right=0;bottom=0;" parent="8wE4H0vgRaOmy2ro6tZ8-23" vertex="1">
          <mxGeometry y="60" width="180" height="30" as="geometry" />
        </mxCell>
        <mxCell id="8wE4H0vgRaOmy2ro6tZ8-28" value="" style="shape=partialRectangle;connectable=0;fillColor=none;top=0;left=0;bottom=0;right=0;editable=1;overflow=hidden;whiteSpace=wrap;html=1;" parent="8wE4H0vgRaOmy2ro6tZ8-27" vertex="1">
          <mxGeometry width="50.00000000000023" height="30" as="geometry">
            <mxRectangle width="50.00000000000023" height="30" as="alternateBounds" />
          </mxGeometry>
        </mxCell>
        <mxCell id="8wE4H0vgRaOmy2ro6tZ8-29" value="Pontuacao" style="shape=partialRectangle;connectable=0;fillColor=none;top=0;left=0;bottom=0;right=0;align=left;spacingLeft=6;overflow=hidden;whiteSpace=wrap;html=1;" parent="8wE4H0vgRaOmy2ro6tZ8-27" vertex="1">
          <mxGeometry x="50.00000000000023" width="129.99999999999977" height="30" as="geometry">
            <mxRectangle width="129.99999999999977" height="30" as="alternateBounds" />
          </mxGeometry>
        </mxCell>
        <mxCell id="8wE4H0vgRaOmy2ro6tZ8-30" value="" style="shape=tableRow;horizontal=0;startSize=0;swimlaneHead=0;swimlaneBody=0;fillColor=none;collapsible=0;dropTarget=0;points=[[0,0.5],[1,0.5]];portConstraint=eastwest;top=0;left=0;right=0;bottom=0;" parent="8wE4H0vgRaOmy2ro6tZ8-23" vertex="1">
          <mxGeometry y="90" width="180" height="30" as="geometry" />
        </mxCell>
        <mxCell id="8wE4H0vgRaOmy2ro6tZ8-31" value="" style="shape=partialRectangle;connectable=0;fillColor=none;top=0;left=0;bottom=0;right=0;editable=1;overflow=hidden;whiteSpace=wrap;html=1;" parent="8wE4H0vgRaOmy2ro6tZ8-30" vertex="1">
          <mxGeometry width="50.00000000000023" height="30" as="geometry">
            <mxRectangle width="50.00000000000023" height="30" as="alternateBounds" />
          </mxGeometry>
        </mxCell>
        <mxCell id="8wE4H0vgRaOmy2ro6tZ8-32" value="SaldoGols" style="shape=partialRectangle;connectable=0;fillColor=none;top=0;left=0;bottom=0;right=0;align=left;spacingLeft=6;overflow=hidden;whiteSpace=wrap;html=1;" parent="8wE4H0vgRaOmy2ro6tZ8-30" vertex="1">
          <mxGeometry x="50.00000000000023" width="129.99999999999977" height="30" as="geometry">
            <mxRectangle width="129.99999999999977" height="30" as="alternateBounds" />
          </mxGeometry>
        </mxCell>
        <mxCell id="8wE4H0vgRaOmy2ro6tZ8-33" value="" style="shape=tableRow;horizontal=0;startSize=0;swimlaneHead=0;swimlaneBody=0;fillColor=none;collapsible=0;dropTarget=0;points=[[0,0.5],[1,0.5]];portConstraint=eastwest;top=0;left=0;right=0;bottom=0;" parent="8wE4H0vgRaOmy2ro6tZ8-23" vertex="1">
          <mxGeometry y="120" width="180" height="30" as="geometry" />
        </mxCell>
        <mxCell id="8wE4H0vgRaOmy2ro6tZ8-34" value="" style="shape=partialRectangle;connectable=0;fillColor=none;top=0;left=0;bottom=0;right=0;editable=1;overflow=hidden;whiteSpace=wrap;html=1;" parent="8wE4H0vgRaOmy2ro6tZ8-33" vertex="1">
          <mxGeometry width="50.00000000000023" height="30" as="geometry">
            <mxRectangle width="50.00000000000023" height="30" as="alternateBounds" />
          </mxGeometry>
        </mxCell>
        <mxCell id="8wE4H0vgRaOmy2ro6tZ8-35" value="GolsFeitos" style="shape=partialRectangle;connectable=0;fillColor=none;top=0;left=0;bottom=0;right=0;align=left;spacingLeft=6;overflow=hidden;whiteSpace=wrap;html=1;" parent="8wE4H0vgRaOmy2ro6tZ8-33" vertex="1">
          <mxGeometry x="50.00000000000023" width="129.99999999999977" height="30" as="geometry">
            <mxRectangle width="129.99999999999977" height="30" as="alternateBounds" />
          </mxGeometry>
        </mxCell>
        <mxCell id="8wE4H0vgRaOmy2ro6tZ8-36" style="shape=tableRow;horizontal=0;startSize=0;swimlaneHead=0;swimlaneBody=0;fillColor=none;collapsible=0;dropTarget=0;points=[[0,0.5],[1,0.5]];portConstraint=eastwest;top=0;left=0;right=0;bottom=0;" parent="8wE4H0vgRaOmy2ro6tZ8-23" vertex="1">
          <mxGeometry y="150" width="180" height="30" as="geometry" />
        </mxCell>
        <mxCell id="8wE4H0vgRaOmy2ro6tZ8-37" style="shape=partialRectangle;connectable=0;fillColor=none;top=0;left=0;bottom=0;right=0;editable=1;overflow=hidden;whiteSpace=wrap;html=1;" parent="8wE4H0vgRaOmy2ro6tZ8-36" vertex="1">
          <mxGeometry width="50.00000000000023" height="30" as="geometry">
            <mxRectangle width="50.00000000000023" height="30" as="alternateBounds" />
          </mxGeometry>
        </mxCell>
        <mxCell id="8wE4H0vgRaOmy2ro6tZ8-38" value="GolsSofridos" style="shape=partialRectangle;connectable=0;fillColor=none;top=0;left=0;bottom=0;right=0;align=left;spacingLeft=6;overflow=hidden;whiteSpace=wrap;html=1;" parent="8wE4H0vgRaOmy2ro6tZ8-36" vertex="1">
          <mxGeometry x="50.00000000000023" width="129.99999999999977" height="30" as="geometry">
            <mxRectangle width="129.99999999999977" height="30" as="alternateBounds" />
          </mxGeometry>
        </mxCell>
        <mxCell id="8wE4H0vgRaOmy2ro6tZ8-99" style="edgeStyle=orthogonalEdgeStyle;rounded=0;orthogonalLoop=1;jettySize=auto;html=1;" parent="1" source="8wE4H0vgRaOmy2ro6tZ8-40" target="8wE4H0vgRaOmy2ro6tZ8-30" edge="1">
          <mxGeometry relative="1" as="geometry" />
        </mxCell>
        <mxCell id="8wE4H0vgRaOmy2ro6tZ8-40" value="JOGO" style="shape=table;startSize=30;container=1;collapsible=1;childLayout=tableLayout;fixedRows=1;rowLines=0;fontStyle=1;align=center;resizeLast=1;html=1;" parent="1" vertex="1">
          <mxGeometry x="321.5" y="565" width="180" height="150" as="geometry" />
        </mxCell>
        <mxCell id="8wE4H0vgRaOmy2ro6tZ8-44" value="" style="shape=tableRow;horizontal=0;startSize=0;swimlaneHead=0;swimlaneBody=0;fillColor=none;collapsible=0;dropTarget=0;points=[[0,0.5],[1,0.5]];portConstraint=eastwest;top=0;left=0;right=0;bottom=0;" parent="8wE4H0vgRaOmy2ro6tZ8-40" vertex="1">
          <mxGeometry y="30" width="180" height="30" as="geometry" />
        </mxCell>
        <mxCell id="8wE4H0vgRaOmy2ro6tZ8-45" value="PK/FK" style="shape=partialRectangle;connectable=0;fillColor=none;top=0;left=0;bottom=0;right=0;editable=1;overflow=hidden;whiteSpace=wrap;html=1;" parent="8wE4H0vgRaOmy2ro6tZ8-44" vertex="1">
          <mxGeometry width="46" height="30" as="geometry">
            <mxRectangle width="46" height="30" as="alternateBounds" />
          </mxGeometry>
        </mxCell>
        <mxCell id="8wE4H0vgRaOmy2ro6tZ8-46" value="IdTimeCasa" style="shape=partialRectangle;connectable=0;fillColor=none;top=0;left=0;bottom=0;right=0;align=left;spacingLeft=6;overflow=hidden;whiteSpace=wrap;html=1;" parent="8wE4H0vgRaOmy2ro6tZ8-44" vertex="1">
          <mxGeometry x="46" width="134" height="30" as="geometry">
            <mxRectangle width="134" height="30" as="alternateBounds" />
          </mxGeometry>
        </mxCell>
        <mxCell id="8wE4H0vgRaOmy2ro6tZ8-47" value="" style="shape=tableRow;horizontal=0;startSize=0;swimlaneHead=0;swimlaneBody=0;fillColor=none;collapsible=0;dropTarget=0;points=[[0,0.5],[1,0.5]];portConstraint=eastwest;top=0;left=0;right=0;bottom=0;" parent="8wE4H0vgRaOmy2ro6tZ8-40" vertex="1">
          <mxGeometry y="60" width="180" height="30" as="geometry" />
        </mxCell>
        <mxCell id="8wE4H0vgRaOmy2ro6tZ8-48" value="" style="shape=partialRectangle;connectable=0;fillColor=none;top=0;left=0;bottom=0;right=0;editable=1;overflow=hidden;whiteSpace=wrap;html=1;" parent="8wE4H0vgRaOmy2ro6tZ8-47" vertex="1">
          <mxGeometry width="46" height="30" as="geometry">
            <mxRectangle width="46" height="30" as="alternateBounds" />
          </mxGeometry>
        </mxCell>
        <mxCell id="8wE4H0vgRaOmy2ro6tZ8-49" value="GolsTimeCasa" style="shape=partialRectangle;connectable=0;fillColor=none;top=0;left=0;bottom=0;right=0;align=left;spacingLeft=6;overflow=hidden;whiteSpace=wrap;html=1;" parent="8wE4H0vgRaOmy2ro6tZ8-47" vertex="1">
          <mxGeometry x="46" width="134" height="30" as="geometry">
            <mxRectangle width="134" height="30" as="alternateBounds" />
          </mxGeometry>
        </mxCell>
        <mxCell id="8wE4H0vgRaOmy2ro6tZ8-50" value="" style="shape=tableRow;horizontal=0;startSize=0;swimlaneHead=0;swimlaneBody=0;fillColor=none;collapsible=0;dropTarget=0;points=[[0,0.5],[1,0.5]];portConstraint=eastwest;top=0;left=0;right=0;bottom=0;" parent="8wE4H0vgRaOmy2ro6tZ8-40" vertex="1">
          <mxGeometry y="90" width="180" height="30" as="geometry" />
        </mxCell>
        <mxCell id="8wE4H0vgRaOmy2ro6tZ8-51" value="PK/FK" style="shape=partialRectangle;connectable=0;fillColor=none;top=0;left=0;bottom=0;right=0;editable=1;overflow=hidden;whiteSpace=wrap;html=1;" parent="8wE4H0vgRaOmy2ro6tZ8-50" vertex="1">
          <mxGeometry width="46" height="30" as="geometry">
            <mxRectangle width="46" height="30" as="alternateBounds" />
          </mxGeometry>
        </mxCell>
        <mxCell id="8wE4H0vgRaOmy2ro6tZ8-52" value="IdTimeFora" style="shape=partialRectangle;connectable=0;fillColor=none;top=0;left=0;bottom=0;right=0;align=left;spacingLeft=6;overflow=hidden;whiteSpace=wrap;html=1;" parent="8wE4H0vgRaOmy2ro6tZ8-50" vertex="1">
          <mxGeometry x="46" width="134" height="30" as="geometry">
            <mxRectangle width="134" height="30" as="alternateBounds" />
          </mxGeometry>
        </mxCell>
        <mxCell id="8wE4H0vgRaOmy2ro6tZ8-56" style="shape=tableRow;horizontal=0;startSize=0;swimlaneHead=0;swimlaneBody=0;fillColor=none;collapsible=0;dropTarget=0;points=[[0,0.5],[1,0.5]];portConstraint=eastwest;top=0;left=0;right=0;bottom=0;" parent="8wE4H0vgRaOmy2ro6tZ8-40" vertex="1">
          <mxGeometry y="120" width="180" height="30" as="geometry" />
        </mxCell>
        <mxCell id="8wE4H0vgRaOmy2ro6tZ8-57" style="shape=partialRectangle;connectable=0;fillColor=none;top=0;left=0;bottom=0;right=0;editable=1;overflow=hidden;whiteSpace=wrap;html=1;" parent="8wE4H0vgRaOmy2ro6tZ8-56" vertex="1">
          <mxGeometry width="46" height="30" as="geometry">
            <mxRectangle width="46" height="30" as="alternateBounds" />
          </mxGeometry>
        </mxCell>
        <mxCell id="8wE4H0vgRaOmy2ro6tZ8-58" value="GolsTimeFora" style="shape=partialRectangle;connectable=0;fillColor=none;top=0;left=0;bottom=0;right=0;align=left;spacingLeft=6;overflow=hidden;whiteSpace=wrap;html=1;" parent="8wE4H0vgRaOmy2ro6tZ8-56" vertex="1">
          <mxGeometry x="46" width="134" height="30" as="geometry">
            <mxRectangle width="134" height="30" as="alternateBounds" />
          </mxGeometry>
        </mxCell>
        <mxCell id="8wE4H0vgRaOmy2ro6tZ8-67" style="edgeStyle=orthogonalEdgeStyle;rounded=0;orthogonalLoop=1;jettySize=auto;html=1;endArrow=none;endFill=0;" parent="1" source="8wE4H0vgRaOmy2ro6tZ8-63" target="8wE4H0vgRaOmy2ro6tZ8-65" edge="1">
          <mxGeometry relative="1" as="geometry" />
        </mxCell>
        <mxCell id="8wE4H0vgRaOmy2ro6tZ8-80" style="edgeStyle=orthogonalEdgeStyle;rounded=0;orthogonalLoop=1;jettySize=auto;html=1;entryX=0;entryY=0.5;entryDx=0;entryDy=0;endArrow=none;endFill=0;" parent="1" source="8wE4H0vgRaOmy2ro6tZ8-63" target="8wE4H0vgRaOmy2ro6tZ8-79" edge="1">
          <mxGeometry relative="1" as="geometry">
            <Array as="points">
              <mxPoint x="36.5" y="230" />
              <mxPoint x="36.5" y="230" />
            </Array>
          </mxGeometry>
        </mxCell>
        <mxCell id="8wE4H0vgRaOmy2ro6tZ8-63" value="TIME" style="rounded=0;whiteSpace=wrap;html=1;" parent="1" vertex="1">
          <mxGeometry x="36.5" y="170" width="120" height="60" as="geometry" />
        </mxCell>
        <mxCell id="8wE4H0vgRaOmy2ro6tZ8-65" value="JOGA" style="rhombus;whiteSpace=wrap;html=1;" parent="1" vertex="1">
          <mxGeometry x="370.5" y="160" width="80" height="80" as="geometry" />
        </mxCell>
        <mxCell id="8wE4H0vgRaOmy2ro6tZ8-68" style="edgeStyle=orthogonalEdgeStyle;rounded=0;orthogonalLoop=1;jettySize=auto;html=1;endArrow=none;endFill=0;" parent="1" source="8wE4H0vgRaOmy2ro6tZ8-66" target="8wE4H0vgRaOmy2ro6tZ8-65" edge="1">
          <mxGeometry relative="1" as="geometry" />
        </mxCell>
        <mxCell id="8wE4H0vgRaOmy2ro6tZ8-101" style="edgeStyle=orthogonalEdgeStyle;rounded=0;orthogonalLoop=1;jettySize=auto;html=1;entryX=0.5;entryY=0;entryDx=0;entryDy=0;endArrow=none;endFill=0;" parent="1" source="8wE4H0vgRaOmy2ro6tZ8-66" target="8wE4H0vgRaOmy2ro6tZ8-100" edge="1">
          <mxGeometry relative="1" as="geometry" />
        </mxCell>
        <mxCell id="8wE4H0vgRaOmy2ro6tZ8-66" value="CAMPEONATO" style="rounded=0;whiteSpace=wrap;html=1;" parent="1" vertex="1">
          <mxGeometry x="676.5" y="170" width="120" height="60" as="geometry" />
        </mxCell>
        <mxCell id="8wE4H0vgRaOmy2ro6tZ8-69" value="3..5" style="text;html=1;align=center;verticalAlign=middle;resizable=0;points=[];autosize=1;strokeColor=none;fillColor=none;" parent="1" vertex="1">
          <mxGeometry x="151.5" y="170" width="40" height="30" as="geometry" />
        </mxCell>
        <mxCell id="8wE4H0vgRaOmy2ro6tZ8-70" value="1" style="text;html=1;align=center;verticalAlign=middle;resizable=0;points=[];autosize=1;strokeColor=none;fillColor=none;" parent="1" vertex="1">
          <mxGeometry x="646.5" y="170" width="30" height="30" as="geometry" />
        </mxCell>
        <mxCell id="8wE4H0vgRaOmy2ro6tZ8-73" value="Nome" style="ellipse;whiteSpace=wrap;html=1;" parent="1" vertex="1">
          <mxGeometry x="36.5" y="270" width="70" height="20" as="geometry" />
        </mxCell>
        <mxCell id="8wE4H0vgRaOmy2ro6tZ8-74" value="TimeCasa" style="ellipse;whiteSpace=wrap;html=1;" parent="1" vertex="1">
          <mxGeometry x="410.5" y="260" width="96" height="20" as="geometry" />
        </mxCell>
        <mxCell id="8wE4H0vgRaOmy2ro6tZ8-75" value="" style="endArrow=none;html=1;rounded=0;entryX=0.5;entryY=1;entryDx=0;entryDy=0;exitX=0;exitY=0.5;exitDx=0;exitDy=0;" parent="1" source="8wE4H0vgRaOmy2ro6tZ8-74" target="8wE4H0vgRaOmy2ro6tZ8-65" edge="1">
          <mxGeometry width="50" height="50" relative="1" as="geometry">
            <mxPoint x="366.5" y="370" as="sourcePoint" />
            <mxPoint x="416.5" y="320" as="targetPoint" />
          </mxGeometry>
        </mxCell>
        <mxCell id="8wE4H0vgRaOmy2ro6tZ8-76" value="GolsTimeCasa" style="ellipse;whiteSpace=wrap;html=1;" parent="1" vertex="1">
          <mxGeometry x="410.5" y="280" width="96" height="20" as="geometry" />
        </mxCell>
        <mxCell id="8wE4H0vgRaOmy2ro6tZ8-77" value="TimeVisitante" style="ellipse;whiteSpace=wrap;html=1;" parent="1" vertex="1">
          <mxGeometry x="410.5" y="300" width="96" height="20" as="geometry" />
        </mxCell>
        <mxCell id="8wE4H0vgRaOmy2ro6tZ8-78" value="GolsTimeVisitante" style="ellipse;whiteSpace=wrap;html=1;" parent="1" vertex="1">
          <mxGeometry x="410.5" y="320" width="96" height="20" as="geometry" />
        </mxCell>
        <mxCell id="8wE4H0vgRaOmy2ro6tZ8-79" value="&lt;u&gt;Id&lt;/u&gt;" style="ellipse;whiteSpace=wrap;html=1;" parent="1" vertex="1">
          <mxGeometry x="36.5" y="250" width="70" height="20" as="geometry" />
        </mxCell>
        <mxCell id="8wE4H0vgRaOmy2ro6tZ8-84" value="&lt;font style=&quot;font-size: 23px;&quot;&gt;&lt;b&gt;MODELO ENTIDADE RELACIONAMENTO&lt;/b&gt;&lt;/font&gt;" style="text;html=1;align=center;verticalAlign=middle;resizable=0;points=[];autosize=1;strokeColor=none;fillColor=none;" parent="1" vertex="1">
          <mxGeometry x="175.5" y="90" width="470" height="40" as="geometry" />
        </mxCell>
        <mxCell id="8wE4H0vgRaOmy2ro6tZ8-85" value="&lt;font style=&quot;font-size: 23px;&quot;&gt;&lt;b&gt;MODELO RELACIONAL&lt;/b&gt;&lt;/font&gt;" style="text;html=1;align=center;verticalAlign=middle;resizable=0;points=[];autosize=1;strokeColor=none;fillColor=none;" parent="1" vertex="1">
          <mxGeometry x="266.5" y="480" width="280" height="40" as="geometry" />
        </mxCell>
        <mxCell id="8wE4H0vgRaOmy2ro6tZ8-92" value="Pontos" style="ellipse;whiteSpace=wrap;html=1;" parent="1" vertex="1">
          <mxGeometry x="36.5" y="310" width="70" height="20" as="geometry" />
        </mxCell>
        <mxCell id="8wE4H0vgRaOmy2ro6tZ8-93" value="SaldoGols" style="ellipse;whiteSpace=wrap;html=1;" parent="1" vertex="1">
          <mxGeometry x="36.5" y="330" width="70" height="20" as="geometry" />
        </mxCell>
        <mxCell id="8wE4H0vgRaOmy2ro6tZ8-94" value="GolsFeitos" style="ellipse;whiteSpace=wrap;html=1;" parent="1" vertex="1">
          <mxGeometry x="36.5" y="350" width="70" height="20" as="geometry" />
        </mxCell>
        <mxCell id="8wE4H0vgRaOmy2ro6tZ8-95" value="GolsSofridos" style="ellipse;whiteSpace=wrap;html=1;" parent="1" vertex="1">
          <mxGeometry x="36.5" y="370" width="70" height="20" as="geometry" />
        </mxCell>
        <mxCell id="8wE4H0vgRaOmy2ro6tZ8-96" value="Apelido" style="ellipse;whiteSpace=wrap;html=1;" parent="1" vertex="1">
          <mxGeometry x="36.5" y="290" width="70" height="20" as="geometry" />
        </mxCell>
        <mxCell id="8wE4H0vgRaOmy2ro6tZ8-100" value="CLASSIFICACAO" style="rounded=0;whiteSpace=wrap;html=1;" parent="1" vertex="1">
          <mxGeometry x="675.5" y="340" width="120" height="60" as="geometry" />
        </mxCell>
        <mxCell id="8wE4H0vgRaOmy2ro6tZ8-102" value="TEM" style="rhombus;whiteSpace=wrap;html=1;" parent="1" vertex="1">
          <mxGeometry x="696.5" y="255" width="80" height="50" as="geometry" />
        </mxCell>
        <mxCell id="8wE4H0vgRaOmy2ro6tZ8-103" value="1" style="text;html=1;align=center;verticalAlign=middle;resizable=0;points=[];autosize=1;strokeColor=none;fillColor=none;" parent="1" vertex="1">
          <mxGeometry x="706.5" y="230" width="30" height="30" as="geometry" />
        </mxCell>
        <mxCell id="8wE4H0vgRaOmy2ro6tZ8-104" value="1" style="text;html=1;align=center;verticalAlign=middle;resizable=0;points=[];autosize=1;strokeColor=none;fillColor=none;" parent="1" vertex="1">
          <mxGeometry x="706.5" y="310" width="30" height="30" as="geometry" />
        </mxCell>
      </root>
    </mxGraphModel>
  </diagram>
</mxfile>
